mtllib chair01.mtl
o chair01
v 0.040087 -0.000000 0.182712
v 0.040087 -0.000000 0.228675
v 0.000000 0.000000 0.228675
v 0.000000 0.000000 0.182712
v 0.556800 -0.000000 0.182712
v 0.556800 -0.000000 0.228674
v 0.516713 -0.000000 0.228674
v 0.516713 -0.000000 0.182712
v 0.040087 -0.000000 -0.228675
v 0.040087 -0.000000 -0.182712
v -0.000000 0.000000 -0.182712
v -0.000000 0.000000 -0.228675
v 0.556800 -0.000000 -0.228675
v 0.556800 -0.000000 -0.182712
v 0.516713 -0.000000 -0.182712
v 0.516713 -0.000000 -0.228675
v 0.516713 0.553992 0.228674
v 0.556800 0.553992 0.228674
v 0.516713 0.553992 0.182712
v 0.556800 0.553992 0.182712
v 0.516713 0.553992 -0.182712
v 0.556800 0.553992 -0.182712
v 0.516713 0.553992 -0.228675
v 0.556800 0.553992 -0.228675
v 0.552790 0.553992 -0.182712
v 0.552790 0.553992 0.182712
v 0.552790 0.494075 0.182712
v 0.552790 0.494075 -0.182712
v 0.519937 0.494075 0.182712
v 0.519937 0.494075 -0.182712
v 0.519937 0.553992 -0.182712
v 0.519937 0.553992 0.182712
v 0.516713 0.553992 0.224877
v 0.092454 0.553992 0.224877
v 0.092454 0.494075 0.224877
v 0.516713 0.494075 0.224877
v 0.092454 0.494075 0.187210
v 0.516713 0.494075 0.187210
v 0.516713 0.553992 0.187210
v 0.092454 0.553992 0.187210
v 0.516713 0.553992 -0.187483
v 0.092454 0.553992 -0.187483
v 0.092454 0.494075 -0.187483
v 0.516713 0.494075 -0.187483
v 0.092454 0.494075 -0.225151
v 0.516713 0.494075 -0.225151
v 0.516713 0.553992 -0.225151
v 0.092454 0.553992 -0.225151
v 0.091926 0.553992 -0.182712
v 0.091926 0.553992 0.182712
v 0.088594 0.494075 0.182712
v 0.088594 0.494075 -0.182712
v 0.055741 0.494075 0.182712
v 0.055741 0.494075 -0.182712
v 0.060006 0.569712 0.182712
v 0.060006 0.569712 -0.182713
v 0.552790 0.288441 -0.182712
v 0.552790 0.288441 0.182712
v 0.552790 0.259341 0.182712
v 0.552790 0.259341 -0.182712
v 0.519937 0.259341 0.182712
v 0.519937 0.259341 -0.182712
v 0.519937 0.288441 -0.182712
v 0.519937 0.288441 0.182712
v 0.516713 0.288441 0.224877
v 0.064724 0.288441 0.224877
v 0.064724 0.259341 0.224877
v 0.516713 0.259341 0.224877
v 0.064724 0.259341 0.187210
v 0.516713 0.259341 0.187210
v 0.516713 0.288441 0.187210
v 0.064724 0.288441 0.187210
v 0.516713 0.288441 -0.187483
v 0.064724 0.288441 -0.187483
v 0.064724 0.259341 -0.187483
v 0.516713 0.259341 -0.187483
v 0.064724 0.259341 -0.225151
v 0.516713 0.259341 -0.225151
v 0.516713 0.288441 -0.225151
v 0.064724 0.288441 -0.225151
v 0.560999 0.566603 -0.234938
v 0.560999 0.566603 0.234938
v 0.560999 0.553992 0.234938
v 0.560999 0.553992 -0.234938
v 0.097978 0.566603 -0.234938
v 0.097978 0.553992 -0.234938
v 0.097978 0.566603 0.234938
v 0.097978 0.553992 0.234938
v 0.065391 1.115108 0.228675
v 0.098073 1.115108 0.182712
v 0.065391 1.115108 0.182712
v 0.098073 1.115108 0.228675
v 0.065391 1.115108 -0.182712
v 0.098073 1.115108 -0.228675
v 0.065391 1.115108 -0.228675
v 0.098073 1.115108 -0.182712
v 0.061689 1.111406 0.228675
v 0.061689 1.111406 0.182712
v 0.101776 1.111406 0.182712
v 0.101776 1.111406 0.228675
v 0.061689 1.111406 -0.182712
v 0.061689 1.111406 -0.228675
v 0.101776 1.111406 -0.228675
v 0.101776 1.111406 -0.182712
v 0.069748 1.003881 -0.093228
v 0.069748 0.745619 -0.093228
v 0.081335 1.003881 -0.093228
v 0.081335 0.745619 -0.093228
v 0.081335 0.745619 -0.105928
v 0.081335 1.003881 -0.105928
v 0.069748 1.003881 -0.105928
v 0.069748 0.745619 -0.105928
v 0.069748 1.003881 0.105929
v 0.069748 0.745619 0.105929
v 0.081335 1.003881 0.105929
v 0.081335 0.745619 0.105929
v 0.081335 0.745619 0.093228
v 0.081335 1.003881 0.093228
v 0.069748 1.003881 0.093228
v 0.069748 0.745619 0.093228
v 0.065215 1.003881 0.006350
v 0.065215 0.745619 0.006350
v 0.076801 1.003881 0.006350
v 0.076801 0.745619 0.006350
v 0.076801 0.745619 -0.006350
v 0.076801 1.003881 -0.006350
v 0.065215 1.003881 -0.006350
v 0.065215 0.745619 -0.006350
v 0.557890 0.569712 -0.231373
v 0.557890 0.569712 0.231373
v 0.097978 0.569712 -0.231373
v 0.097978 0.569712 0.231373
v 0.096445 1.108277 0.182712
v 0.096445 1.003881 0.182712
v 0.086278 1.003881 0.099578
v 0.086278 1.108277 0.099578
v 0.081403 1.003881 -0.000000
v 0.081403 1.108277 -0.000000
v 0.086278 1.003881 -0.099578
v 0.086278 1.108277 -0.099578
v 0.096445 1.003881 -0.182713
v 0.096445 1.108277 -0.182713
v 0.073737 1.108277 -0.182713
v 0.073737 1.003881 -0.182713
v 0.063569 1.003881 -0.099578
v 0.063569 1.108277 -0.099578
v 0.058694 1.003881 -0.000000
v 0.058694 1.108277 -0.000000
v 0.063569 1.003881 0.099578
v 0.063569 1.108277 0.099578
v 0.073737 1.003881 0.182712
v 0.073737 1.108277 0.182712
v 0.051322 0.460892 0.228675
v 0.091409 0.460892 0.228675
v 0.061689 0.647667 0.228675
v 0.101776 0.647667 0.228675
v 0.051322 0.460892 0.182712
v 0.091409 0.460892 0.182712
v 0.061689 0.647667 0.182712
v 0.101776 0.647667 0.182712
v 0.051322 0.460892 -0.182712
v 0.091409 0.460892 -0.182712
v 0.061689 0.647667 -0.182712
v 0.101776 0.647667 -0.182712
v 0.051322 0.460892 -0.228675
v 0.091409 0.460892 -0.228675
v 0.061689 0.647667 -0.228675
v 0.101776 0.647667 -0.228675
v 0.097978 0.569712 0.182712
v 0.097978 0.569712 -0.182713
v 0.074347 0.745619 -0.182713
v 0.083838 0.745619 -0.099578
v 0.091533 0.745619 -0.182713
v 0.066653 0.745619 -0.099578
v 0.080149 0.745619 -0.000000
v 0.062963 0.745619 -0.000000
v 0.066653 0.745619 0.099578
v 0.083838 0.745619 0.099578
v 0.074347 0.745619 0.182712
v 0.091533 0.745619 0.182712
v 0.091533 0.715618 0.182712
v 0.083838 0.715618 0.099578
v 0.080149 0.715618 -0.000000
v 0.083838 0.715618 -0.099578
v 0.091533 0.715618 -0.182713
v 0.074347 0.715618 -0.182713
v 0.066653 0.715618 -0.099578
v 0.062963 0.715618 -0.000000
v 0.066653 0.715618 0.099578
v 0.074347 0.715618 0.182712
vn 0.5416 -0.6052 -0.5834
vn 0.5416 -0.6052 0.5834
vn -0.6114 -0.5471 0.5717
vn -0.6114 -0.5471 -0.5717
vn 0.5774 -0.5774 -0.5774
vn 0.5774 -0.5774 0.5774
vn -0.5774 -0.5774 0.5774
vn -0.5774 -0.5774 -0.5774
vn -0.7071 -0.0000 0.7071
vn 0.7071 -0.0000 0.7071
vn -0.7071 -0.0000 -0.7071
vn 0.7071 -0.0000 -0.7071
vn 1.0000 -0.0000 -0.0000
vn 0.7071 -0.7071 -0.0000
vn -0.7071 -0.7071 -0.0000
vn -1.0000 -0.0000 -0.0000
vn -0.0000 -0.0000 1.0000
vn -0.0000 -0.7071 0.7071
vn -0.0000 -0.7071 -0.7071
vn -0.0000 -0.0000 -1.0000
vn 0.0395 -0.9991 -0.0134
vn 0.0395 -0.9991 0.0134
vn 0.6872 -0.7265 -0.0000
vn -0.7267 -0.6869 -0.0000
vn -0.6869 0.7267 -0.0000
vn 0.7071 0.7071 -0.0000
vn -0.7071 0.7071 -0.0000
vn -0.0000 0.7071 0.7071
vn -0.0000 0.7071 -0.7071
vn 0.6442 0.4025 -0.6504
vn 0.6442 0.4025 0.6504
vn -0.6247 0.3232 -0.7108
vn -0.5475 -0.5784 -0.6047
vn -0.6247 0.3232 0.7108
vn -0.5475 -0.5784 0.6047
vn -0.2971 0.7173 0.6303
vn 0.2971 0.7173 -0.6303
vn -0.2971 0.7173 -0.6303
vn 0.2971 0.7173 0.6303
vn -0.7173 0.2971 0.6303
vn -0.7173 0.2971 -0.6303
vn 0.7173 0.2971 -0.6303
vn 0.7173 0.2971 0.6303
vn 0.3040 0.9136 -0.2701
vn 0.3040 0.9136 0.2701
vn -0.6079 0.7339 -0.3031
vn -0.6079 0.7339 0.3031
vn 0.7296 0.6781 -0.0892
vn 0.7296 -0.6781 -0.0892
vn 0.6962 -0.7154 -0.0595
vn 0.6962 0.7154 -0.0595
vn 0.6958 -0.7183 -0.0000
vn 0.6958 0.7183 -0.0000
vn 0.6962 -0.7154 0.0595
vn 0.6962 0.7154 0.0595
vn 0.7296 -0.6781 0.0892
vn 0.7296 0.6781 0.0892
vn -0.6752 0.7330 -0.0826
vn -0.6752 -0.7330 -0.0826
vn -0.7125 -0.6990 -0.0609
vn -0.7125 0.6990 -0.0609
vn -0.7178 -0.6963 -0.0000
vn -0.7178 0.6963 -0.0000
vn -0.7125 -0.6990 0.0609
vn -0.7125 0.6990 0.0609
vn -0.6752 -0.7330 0.0826
vn -0.6752 0.7330 0.0826
vn -0.6983 0.0582 0.7134
vn 0.7108 -0.0593 0.7009
vn -0.7005 0.0194 0.7134
vn 0.7130 -0.0198 0.7009
vn -0.6983 0.0582 -0.7134
vn 0.7108 -0.0593 -0.7009
vn -0.7005 0.0194 -0.7134
vn 0.7130 -0.0198 -0.7009
vn -0.2677 0.9635 -0.0000
vn -0.6837 0.7270 -0.0633
vn 0.6993 0.7134 0.0453
vn 0.7251 0.6854 0.0671
vn -0.7117 0.7009 -0.0461
vn 0.6986 0.7155 -0.0000
vn -0.7153 0.6989 -0.0000
vn -0.7117 0.7009 0.0461
vn 0.6993 0.7134 -0.0453
vn -0.6837 0.7270 0.0633
vn 0.7251 0.6854 -0.0671
vn 0.7251 -0.6854 -0.0671
vn 0.6993 -0.7134 -0.0453
vn 0.6986 -0.7155 -0.0000
vn 0.6993 -0.7134 0.0453
vn 0.7251 -0.6854 0.0671
vn -0.6837 -0.7270 -0.0633
vn -0.7117 -0.7009 -0.0461
vn -0.7153 -0.6989 -0.0000
vn -0.7117 -0.7009 0.0461
vn -0.6837 -0.7270 0.0633
vt 0.602539 0.569824
vt 0.598145 0.569824
vt 0.598145 0.565918
vt 0.602539 0.565918
vt 0.126831 0.290039
vt 0.122375 0.290039
vt 0.122375 0.286133
vt 0.126831 0.286133
vt 0.808105 0.546631
vt 0.803711 0.546631
vt 0.803711 0.542725
vt 0.808105 0.542725
vt 0.112793 0.290039
vt 0.108337 0.290039
vt 0.108337 0.286133
vt 0.112793 0.286133
vt 0.028809 0.889343
vt 0.028809 0.835693
vt 0.032684 0.889343
vt 0.032684 0.835693
vt 0.167114 0.039062
vt 0.220825 0.039062
vt 0.167114 0.043457
vt 0.220825 0.043457
vt 0.167114 0.055176
vt 0.220825 0.055176
vt 0.167114 0.059082
vt 0.220825 0.059082
vt 0.023438 0.889343
vt 0.023438 0.835693
vt 0.027893 0.889343
vt 0.027893 0.835693
vt 0.018631 0.889343
vt 0.018631 0.835693
vt 0.022507 0.889343
vt 0.022507 0.835693
vt 0.167114 0.049805
vt 0.220825 0.049805
vt 0.167114 0.054199
vt 0.220825 0.054199
vt 0.548828 0.592529
vt 0.495361 0.592529
vt 0.548828 0.588623
vt 0.495361 0.588623
vt 0.167114 0.044434
vt 0.220825 0.044434
vt 0.167114 0.048828
vt 0.220825 0.048828
vt 0.617188 0.410156
vt 0.617188 0.374512
vt 0.622559 0.374512
vt 0.622559 0.410156
vt 0.802246 0.374512
vt 0.798828 0.410156
vt 0.798828 0.374512
vt 0.802246 0.410156
vt 0.804688 0.426270
vt 0.804688 0.461426
vt 0.798828 0.426270
vt 0.798828 0.461426
vt 0.158813 0.091309
vt 0.117676 0.091309
vt 0.117676 0.085449
vt 0.158813 0.085449
vt 0.998535 0.113281
vt 0.998535 0.154297
vt 0.995117 0.154297
vt 0.995117 0.113281
vt 0.804688 0.113281
vt 0.804688 0.154297
vt 0.798828 0.113281
vt 0.798828 0.154297
vt 0.612305 0.205566
vt 0.612305 0.164551
vt 0.618164 0.164551
vt 0.618164 0.205566
vt 0.149414 0.103027
vt 0.108337 0.103027
vt 0.108337 0.099121
vt 0.149414 0.099121
vt 0.991699 0.113281
vt 0.991699 0.154297
vt 0.985840 0.113281
vt 0.985840 0.154297
vt 0.985840 0.358887
vt 0.985840 0.323242
vt 0.991699 0.323242
vt 0.991699 0.358887
vt 0.802246 0.323242
vt 0.798828 0.358887
vt 0.798828 0.323242
vt 0.802246 0.358887
vt 0.744629 0.345703
vt 0.780273 0.353027
vt 0.744629 0.353027
vt 0.780273 0.345703
vt 0.612305 0.312012
vt 0.612305 0.276855
vt 0.615234 0.276855
vt 0.615234 0.312012
vt 0.998047 0.323242
vt 0.995117 0.358887
vt 0.995117 0.323242
vt 0.998047 0.358887
vt 0.985840 0.512695
vt 0.985840 0.477539
vt 0.988770 0.477539
vt 0.988770 0.512695
vt 0.806641 0.220703
vt 0.806641 0.255859
vt 0.803711 0.220703
vt 0.803711 0.255859
vt 0.394775 0.783447
vt 0.351074 0.783447
vt 0.351074 0.780640
vt 0.394775 0.780640
vt 0.334229 0.784302
vt 0.290283 0.784302
vt 0.290283 0.780640
vt 0.334229 0.780640
vt 0.884766 0.886963
vt 0.840820 0.886963
vt 0.840820 0.883362
vt 0.884766 0.883362
vt 0.229736 0.776001
vt 0.273438 0.776001
vt 0.229736 0.778809
vt 0.273438 0.778809
vt 0.394775 0.788208
vt 0.351074 0.788208
vt 0.351074 0.785278
vt 0.394775 0.785278
vt 0.945801 0.886963
vt 0.901855 0.886963
vt 0.901855 0.883362
vt 0.945801 0.883362
vt 0.940918 0.999001
vt 0.896973 0.999001
vt 0.896973 0.995350
vt 0.940918 0.995350
vt 0.229736 0.780640
vt 0.273438 0.780640
vt 0.229736 0.783447
vt 0.273438 0.783447
vt 0.671387 0.056152
vt 0.671387 0.010742
vt 0.672852 0.010742
vt 0.672852 0.056152
vt 0.668945 0.055664
vt 0.668945 0.010742
vt 0.670410 0.010742
vt 0.670410 0.055664
vt 0.666992 0.055664
vt 0.666992 0.010742
vt 0.667969 0.010742
vt 0.667969 0.055664
vt 0.136353 0.289062
vt 0.140747 0.286133
vt 0.140747 0.289062
vt 0.136353 0.286133
vt 0.803711 0.559814
vt 0.808105 0.556641
vt 0.808105 0.559814
vt 0.803711 0.556641
vt 0.136353 0.289551
vt 0.140747 0.289551
vt 0.743652 0.360840
vt 0.743652 0.356445
vt 0.803711 0.560059
vt 0.808105 0.560059
vt 0.743652 0.344727
vt 0.743652 0.340332
vt 0.727051 0.028809
vt 0.751953 0.028809
vt 0.727051 0.029785
vt 0.751953 0.029785
vt 0.507324 0.108887
vt 0.532227 0.108887
vt 0.532227 0.110352
vt 0.507324 0.110352
vt 0.709961 0.020020
vt 0.708496 0.044922
vt 0.708496 0.020020
vt 0.709961 0.044922
vt 0.507324 0.112305
vt 0.532227 0.110840
vt 0.532227 0.112305
vt 0.507324 0.110840
vt 0.532227 0.107910
vt 0.507324 0.107910
vt 0.532227 0.106934
vt 0.507324 0.106934
vt 0.751953 0.027832
vt 0.727051 0.027832
vt 0.727051 0.026367
vt 0.751953 0.026367
vt 0.532227 0.114258
vt 0.507324 0.113281
vt 0.532227 0.113281
vt 0.507324 0.114258
vt 0.128540 0.030273
vt 0.129639 0.055176
vt 0.128540 0.055176
vt 0.129639 0.030273
vt 0.126465 0.055176
vt 0.126465 0.030273
vt 0.127563 0.055176
vt 0.127563 0.030273
vt 0.131836 0.030273
vt 0.131836 0.055176
vt 0.130615 0.055176
vt 0.130615 0.030273
vt 0.727051 0.032715
vt 0.751953 0.033691
vt 0.727051 0.033691
vt 0.751953 0.032715
vt 0.727051 0.030762
vt 0.751953 0.031738
vt 0.727051 0.031738
vt 0.751953 0.030762
vt 0.671387 0.011230
vt 0.200684 0.559814
vt 0.245239 0.559814
vt 0.200684 0.560303
vt 0.245605 0.560303
vt 0.200684 0.514648
vt 0.245239 0.514893
vt 0.200684 0.514893
vt 0.245605 0.514648
vt 0.985840 0.169434
vt 0.996094 0.169434
vt 0.996094 0.177246
vt 0.985840 0.177246
vt 0.996094 0.187012
vt 0.985840 0.187012
vt 0.996094 0.196777
vt 0.985840 0.196777
vt 0.996094 0.204590
vt 0.985840 0.204590
vt 0.047791 0.476074
vt 0.057922 0.476074
vt 0.057922 0.484375
vt 0.047791 0.484375
vt 0.057922 0.493652
vt 0.047791 0.493652
vt 0.057922 0.503418
vt 0.047791 0.503418
vt 0.057922 0.511475
vt 0.047791 0.511475
vt 0.772949 0.394531
vt 0.728516 0.392578
vt 0.773438 0.390625
vt 0.728027 0.396484
vt 0.710449 0.392090
vt 0.709961 0.395996
vt 0.665039 0.393066
vt 0.665527 0.389160
vt 0.665039 0.389648
vt 0.665039 0.392578
vt 0.635742 0.329590
vt 0.680176 0.334473
vt 0.635742 0.333496
vt 0.680176 0.338379
vt 0.698242 0.335449
vt 0.698242 0.339355
vt 0.743652 0.335449
vt 0.743652 0.339355
vt 0.743652 0.335938
vt 0.743652 0.338867
vt 0.772949 0.386230
vt 0.728516 0.384277
vt 0.773438 0.382324
vt 0.728027 0.388184
vt 0.710449 0.383789
vt 0.709961 0.387695
vt 0.665039 0.384766
vt 0.665527 0.380859
vt 0.665039 0.381348
vt 0.665039 0.384277
vt 0.635742 0.345703
vt 0.680176 0.350586
vt 0.635742 0.349609
vt 0.680176 0.354492
vt 0.698242 0.351562
vt 0.698242 0.355469
vt 0.743652 0.351562
vt 0.743652 0.355469
vt 0.743652 0.352051
vt 0.743652 0.354980
vt 0.998535 0.944397
vt 0.953125 0.939331
vt 0.998047 0.939331
vt 0.998535 0.979828
vt 0.953125 0.984886
vt 0.998047 0.984886
vt 0.808594 0.530273
vt 0.808594 0.528564
vt 0.808594 0.529785
vt 0.803711 0.528564
vt 0.803711 0.530273
vt 0.621582 0.500732
vt 0.622070 0.502197
vt 0.621582 0.501953
vt 0.626465 0.500732
vt 0.626465 0.502197
vt 0.044678 0.511475
vt 0.045898 0.503418
vt 0.046875 0.511475
vt 0.043701 0.503418
vt 0.045410 0.493652
vt 0.043213 0.493652
vt 0.043701 0.484375
vt 0.045898 0.484375
vt 0.044678 0.476074
vt 0.046875 0.476074
vt 0.771973 0.343750
vt 0.780273 0.342285
vt 0.780273 0.344727
vt 0.771973 0.341309
vt 0.762207 0.343262
vt 0.762207 0.340820
vt 0.752930 0.341309
vt 0.752930 0.343750
vt 0.744629 0.342285
vt 0.744629 0.344727
vt 0.800293 0.255859
vt 0.801270 0.248047
vt 0.801758 0.255859
vt 0.799316 0.248047
vt 0.800781 0.238281
vt 0.798828 0.238281
vt 0.799316 0.228516
vt 0.801270 0.228516
vt 0.800293 0.220703
vt 0.801758 0.220703
vt 0.801758 0.271973
vt 0.801758 0.280273
vt 0.798828 0.271973
vt 0.798828 0.280273
vt 0.801758 0.289551
vt 0.798828 0.289551
vt 0.801758 0.299316
vt 0.798828 0.299316
vt 0.801758 0.307617
vt 0.798828 0.307617
vt 0.801758 0.169434
vt 0.801758 0.177246
vt 0.798828 0.169434
vt 0.798828 0.177246
vt 0.801758 0.187012
vt 0.798828 0.187012
vt 0.801758 0.196777
vt 0.798828 0.196777
vt 0.801758 0.204590
vt 0.798828 0.204590
vt 0.040283 0.503418
vt 0.041199 0.511475
vt 0.039520 0.511475
vt 0.041931 0.503418
vt 0.040649 0.493652
vt 0.042297 0.493652
vt 0.041931 0.484375
vt 0.040283 0.484375
vt 0.041199 0.476074
vt 0.039520 0.476074
vt 0.742676 0.061523
vt 0.787598 0.057129
vt 0.787598 0.061523
vt 0.742676 0.057129
vt 0.724609 0.057129
vt 0.724609 0.061523
vt 0.679688 0.061523
vt 0.679688 0.057129
vt 0.680176 0.356445
vt 0.635742 0.360840
vt 0.635742 0.356445
vt 0.680176 0.360840
vt 0.698242 0.360840
vt 0.698242 0.356445
vt 0.742676 0.066895
vt 0.787598 0.062500
vt 0.787598 0.066895
vt 0.742676 0.062500
vt 0.724609 0.062500
vt 0.724609 0.066895
vt 0.679688 0.066895
vt 0.679688 0.062500
vt 0.680176 0.340332
vt 0.635742 0.344727
vt 0.635742 0.340332
vt 0.680176 0.344727
vt 0.698242 0.344727
vt 0.698242 0.340332
vt 0.200684 0.555176
vt 0.200684 0.519775
vt 0.197021 0.555176
vt 0.197021 0.519775
s 1
usemtl M_Furniture_bomb_2
f 1/1/1 2/2/2 3/3/3
f 1/1/1 3/3/3 4/4/4
f 5/5/5 6/6/6 7/7/7
f 5/5/5 7/7/7 8/8/8
f 9/9/1 10/10/2 11/11/3
f 9/9/1 11/11/3 12/12/4
f 13/13/5 14/14/6 15/15/7
f 13/13/5 15/15/7 16/16/8
f 17/17/9 7/18/7 18/19/10
f 18/19/10 7/18/7 6/20/6
f 19/21/11 8/22/8 17/23/9
f 17/23/9 8/22/8 7/24/7
f 20/25/12 5/26/5 19/27/11
f 19/27/11 5/26/5 8/28/8
f 18/29/10 6/30/6 20/31/12
f 20/31/12 6/30/6 5/32/5
f 21/33/9 15/34/7 22/35/10
f 22/35/10 15/34/7 14/36/6
f 23/37/11 16/38/8 21/39/9
f 21/39/9 16/38/8 15/40/7
f 24/41/12 13/42/5 23/43/11
f 23/43/11 13/42/5 16/44/8
f 22/45/10 14/46/6 24/47/12
f 24/47/12 14/46/6 13/48/5
f 25/49/13 26/50/13 27/51/14
f 25/49/13 27/51/14 28/52/14
f 29/53/15 28/54/14 27/55/14
f 28/54/14 29/53/15 30/56/15
f 30/57/15 29/58/15 31/59/16
f 32/60/16 31/59/16 29/58/15
f 33/61/17 34/62/17 35/63/18
f 33/61/17 35/63/18 36/64/18
f 37/65/19 38/66/19 36/67/18
f 36/67/18 35/68/18 37/65/19
f 38/69/19 37/70/19 39/71/20
f 40/72/20 39/71/20 37/70/19
f 41/73/17 42/74/17 43/75/18
f 41/73/17 43/75/18 44/76/18
f 45/77/19 46/78/19 44/79/18
f 44/79/18 43/80/18 45/77/19
f 46/81/19 45/82/19 47/83/20
f 48/84/20 47/83/20 45/82/19
f 49/85/21 50/86/22 51/87/23
f 49/85/21 51/87/23 52/88/23
f 53/89/24 52/90/23 51/91/23
f 52/90/23 53/89/24 54/92/24
f 54/93/24 55/94/25 56/95/25
f 55/94/25 54/93/24 53/96/24
f 57/97/26 58/98/26 59/99/14
f 57/97/26 59/99/14 60/100/14
f 61/101/15 60/102/14 59/103/14
f 60/102/14 61/101/15 62/104/15
f 63/105/27 64/106/27 58/107/26
f 63/105/27 58/107/26 57/108/26
f 62/109/15 61/110/15 63/111/27
f 64/112/27 63/111/27 61/110/15
f 65/113/28 66/114/28 67/115/18
f 65/113/28 67/115/18 68/116/18
f 69/117/19 70/118/19 68/119/18
f 68/119/18 67/120/18 69/117/19
f 71/121/29 72/122/29 66/123/28
f 66/123/28 65/124/28 71/121/29
f 70/125/19 69/126/19 71/127/29
f 72/128/29 71/127/29 69/126/19
f 73/129/28 74/130/28 75/131/18
f 73/129/28 75/131/18 76/132/18
f 77/133/19 78/134/19 76/135/18
f 76/135/18 75/136/18 77/133/19
f 79/137/29 80/138/29 74/139/28
f 74/139/28 73/140/28 79/137/29
f 78/141/19 77/142/19 79/143/29
f 80/144/29 79/143/29 77/142/19
f 81/145/30 82/146/31 83/147/6
f 81/145/30 83/147/6 84/148/5
f 85/149/32 81/150/30 84/151/5
f 85/149/32 84/151/5 86/152/33
f 82/153/31 87/154/34 88/155/35
f 82/153/31 88/155/35 83/156/6
f 89/157/36 90/158/37 91/159/38
f 90/158/37 89/157/36 92/160/39
f 93/161/36 94/162/37 95/163/38
f 94/162/37 93/161/36 96/164/39
f 89/157/36 91/159/38 97/165/40
f 98/166/41 97/165/40 91/159/38
f 92/167/39 99/168/42 90/168/37
f 99/168/42 92/167/39 100/167/43
f 93/161/36 95/163/38 101/169/40
f 102/170/41 101/169/40 95/163/38
f 96/171/39 103/172/42 94/172/37
f 103/172/42 96/171/39 104/171/43
f 105/173/9 106/174/9 107/175/10
f 107/175/10 106/174/9 108/176/10
f 109/177/12 110/178/12 107/179/10
f 107/179/10 108/180/10 109/177/12
f 111/181/11 106/182/9 105/183/9
f 106/182/9 111/181/11 112/184/11
f 109/185/12 111/186/11 110/187/12
f 111/186/11 109/185/12 112/188/11
f 113/189/9 114/190/9 115/191/10
f 115/191/10 114/190/9 116/192/10
f 117/193/12 118/194/12 115/195/10
f 115/195/10 116/196/10 117/193/12
f 119/197/11 114/198/9 113/199/9
f 114/198/9 119/197/11 120/200/11
f 117/201/12 119/202/11 118/203/12
f 119/202/11 117/201/12 120/204/11
f 121/205/9 122/206/9 123/207/10
f 123/207/10 122/206/9 124/208/10
f 125/209/12 126/210/12 123/211/10
f 123/211/10 124/212/10 125/209/12
f 127/213/11 122/214/9 121/215/9
f 122/214/9 127/213/11 128/216/11
f 126/217/12 128/218/11 127/219/11
f 128/218/11 126/217/12 125/220/12
f 82/146/31 129/145/44 130/221/45
f 129/145/44 82/146/31 81/145/30
f 131/222/46 129/223/44 85/224/32
f 85/224/32 129/223/44 81/225/30
f 87/226/34 130/227/45 132/228/47
f 130/227/45 87/226/34 82/229/31
f 133/230/48 134/231/49 135/232/50
f 136/233/51 133/230/48 135/232/50
f 136/233/51 135/232/50 137/234/52
f 138/235/53 136/233/51 137/234/52
f 138/235/53 137/234/52 139/236/54
f 140/237/55 138/235/53 139/236/54
f 141/238/56 140/237/55 139/236/54
f 140/237/55 141/238/56 142/239/57
f 143/240/58 144/241/59 145/242/60
f 146/243/61 143/240/58 145/242/60
f 146/243/61 145/242/60 147/244/62
f 148/245/63 146/243/61 147/244/62
f 148/245/63 147/244/62 149/246/64
f 150/247/65 148/245/63 149/246/64
f 151/248/66 150/247/65 149/246/64
f 150/247/65 151/248/66 152/249/67
f 2/250/2 153/251/68 3/252/3
f 153/251/68 2/250/2 154/253/69
f 154/253/69 155/254/70 153/251/68
f 155/254/70 154/253/69 156/255/71
f 100/256/43 155/254/70 156/255/71
f 97/257/40 155/254/70 100/256/43
f 100/256/43 89/258/36 97/257/40
f 89/258/36 100/256/43 92/259/39
f 4/260/4 157/261/72 1/262/1
f 158/263/73 1/262/1 157/261/72
f 159/264/74 158/263/73 157/261/72
f 158/263/73 159/264/74 160/265/75
f 98/266/41 160/265/75 159/264/74
f 99/267/42 160/265/75 98/266/41
f 91/268/38 99/267/42 98/266/41
f 99/267/42 91/268/38 90/269/37
f 10/270/2 161/271/68 11/272/3
f 161/271/68 10/270/2 162/273/69
f 162/273/69 163/274/70 161/271/68
f 163/274/70 162/273/69 164/275/71
f 104/276/43 163/274/70 164/275/71
f 101/277/40 163/274/70 104/276/43
f 104/276/43 93/278/36 101/277/40
f 93/278/36 104/276/43 96/279/39
f 12/280/4 165/281/72 9/282/1
f 166/283/73 9/282/1 165/281/72
f 167/284/74 166/283/73 165/281/72
f 166/283/73 167/284/74 168/285/75
f 102/286/41 168/285/75 167/284/74
f 103/287/42 168/285/75 102/286/41
f 95/288/38 103/287/42 102/286/41
f 103/287/42 95/288/38 94/289/37
f 50/290/22 83/291/6 88/292/35
f 49/293/21 83/291/6 50/290/22
f 83/291/6 49/293/21 84/294/5
f 84/294/5 49/293/21 86/295/33
f 132/296/47 88/297/35 87/298/34
f 132/296/47 50/299/22 88/297/35
f 50/299/22 132/296/47 169/300/76
f 86/301/33 131/302/46 85/303/32
f 131/302/46 86/301/33 49/304/21
f 131/302/46 49/304/21 170/305/76
f 143/306/58 140/307/55 142/308/57
f 140/307/55 143/306/58 146/309/61
f 146/309/61 138/310/53 140/307/55
f 138/310/53 146/309/61 148/311/63
f 150/312/65 138/310/53 148/311/63
f 138/310/53 150/312/65 136/313/51
f 150/312/65 152/314/67 136/313/51
f 133/315/48 136/313/51 152/314/67
f 139/316/54 144/317/59 141/318/56
f 144/317/59 139/316/54 145/319/60
f 137/320/52 145/319/60 139/316/54
f 145/319/60 137/320/52 147/321/62
f 137/320/52 149/322/64 147/321/62
f 137/320/52 135/323/50 149/322/64
f 135/323/50 151/324/66 149/322/64
f 135/323/50 134/325/49 151/324/66
f 171/326/77 172/327/78 173/328/79
f 172/327/78 171/326/77 174/329/80
f 174/329/80 175/330/81 172/327/78
f 175/330/81 174/329/80 176/331/82
f 177/332/83 175/330/81 176/331/82
f 175/330/81 177/332/83 178/333/84
f 177/332/83 179/334/85 178/333/84
f 180/335/86 178/333/84 179/334/85
f 181/336/87 182/337/88 180/338/86
f 178/339/84 180/338/86 182/337/88
f 182/337/88 183/340/89 178/339/84
f 175/341/81 178/339/84 183/340/89
f 183/340/89 184/342/90 175/341/81
f 172/343/78 175/341/81 184/342/90
f 185/344/91 172/343/78 184/342/90
f 172/343/78 185/344/91 173/345/79
f 186/346/92 187/347/93 171/348/77
f 174/349/80 171/348/77 187/347/93
f 187/347/93 188/350/94 174/349/80
f 176/351/82 174/349/80 188/350/94
f 188/350/94 189/352/95 176/351/82
f 177/353/83 176/351/82 189/352/95
f 190/354/96 177/353/83 189/352/95
f 177/353/83 190/354/96 179/355/85
f 184/356/90 186/357/92 185/358/91
f 186/357/92 184/356/90 187/359/93
f 183/360/89 187/359/93 184/356/90
f 187/359/93 183/360/89 188/361/94
f 183/360/89 189/362/95 188/361/94
f 183/360/89 182/363/88 189/362/95
f 182/363/88 190/364/96 189/362/95
f 182/363/88 181/365/87 190/364/96
f 153/366/68 4/367/4 3/368/3
f 157/369/72 4/367/4 153/366/68
f 153/366/68 159/370/74 157/369/72
f 159/370/74 153/366/68 155/371/70
f 97/372/40 159/370/74 155/371/70
f 98/373/41 159/370/74 97/372/40
f 158/374/73 2/375/2 1/376/1
f 154/377/69 2/375/2 158/374/73
f 158/374/73 156/378/71 154/377/69
f 156/378/71 158/374/73 160/379/75
f 99/168/42 156/378/71 160/379/75
f 100/167/43 156/378/71 99/168/42
f 161/380/68 12/381/4 11/382/3
f 165/383/72 12/381/4 161/380/68
f 161/380/68 167/384/74 165/383/72
f 167/384/74 161/380/68 163/385/70
f 101/386/40 167/384/74 163/385/70
f 102/387/41 167/384/74 101/386/40
f 166/388/73 10/389/2 9/390/1
f 162/391/69 10/389/2 166/388/73
f 166/388/73 164/392/71 162/391/69
f 164/392/71 166/388/73 168/393/75
f 103/172/42 164/392/71 168/393/75
f 104/171/43 164/392/71 103/172/42
f 129/223/44 131/222/46 170/394/76
f 169/395/76 129/223/44 170/394/76
f 129/223/44 169/395/76 130/227/45
f 130/227/45 169/395/76 132/228/47
f 56/396/25 169/395/76 170/394/76
f 56/396/25 55/397/25 169/395/76
