{
	"asset":{
		"generator":"Khronos glTF Blender I/O v3.6.28",
		"version":"2.0"
	},
	"scene":0,
	"scenes":[
		{
			"name":"Scene",
			"nodes":[
				0
			]
		}
	],
	"nodes":[
		{
			"mesh":0,
			"name":"SM_Furniture_stool_1",
			"rotation":[
				0,
				0.8307881951332092,
				0,
				0.5565886497497559
			],
			"scale":[
				0.009999999776482582,
				0.009999999776482582,
				0.009999999776482582
			],
			"translation":[
				-4.816412448883057,
				0,
				6.864961624145508
			]
		}
	],
	"meshes":[
		{
			"name":"SM_Furniture_stool_1",
			"primitives":[
				{
					"attributes":{
						"POSITION":0,
						"NORMAL":1,
						"TEXCOORD_0":2
					},
					"indices":3
				}
			]
		}
	],
	"accessors":[
		{
			"bufferView":0,
			"componentType":5126,
			"count":402,
			"max":[
				23.49380874633789,
				111.51082611083984,
				56.09990692138672
			],
			"min":[
				-23.493797302246094,
				-3.40941984456407e-15,
				0
			],
			"type":"VEC3"
		},
		{
			"bufferView":1,
			"componentType":5126,
			"count":402,
			"type":"VEC3"
		},
		{
			"bufferView":2,
			"componentType":5126,
			"count":402,
			"type":"VEC2"
		},
		{
			"bufferView":3,
			"componentType":5123,
			"count":768,
			"type":"SCALAR"
		}
	],
	"bufferViews":[
		{
			"buffer":0,
			"byteLength":4824,
			"byteOffset":0,
			"target":34962
		},
		{
			"buffer":0,
			"byteLength":4824,
			"byteOffset":4824,
			"target":34962
		},
		{
			"buffer":0,
			"byteLength":3216,
			"byteOffset":9648,
			"target":34962
		},
		{
			"buffer":0,
			"byteLength":1536,
			"byteOffset":12864,
			"target":34963
		}
	],
	"buffers":[
		{
			"byteLength":14400,
			"uri":"data:application/octet-stream;base64,"
		}
	]
}
